<svg width="836" height="374" viewBox="0 0 836 374" fill="none" xmlns="http://www.w3.org/2000/svg">
<mask id="path-1-outside-1" maskUnits="userSpaceOnUse" x="0" y="0" width="836" height="374" fill="black">
<rect fill="white" width="836" height="374"/>
<path fill-rule="evenodd" clip-rule="evenodd" d="M164.102 6C154.341 6 146.428 13.9127 146.428 23.6734C146.428 23.8774 146.432 24.0805 146.439 24.2828H36C19.4315 24.2828 6 37.7143 6 54.2829V338C6 354.569 19.4315 368 36 368H800C816.569 368 830 354.569 830 338V54.2828C830 37.7143 816.569 24.2828 800 24.2828H689.562C689.568 24.0805 689.572 23.8774 689.572 23.6734C689.572 13.9127 681.659 6 671.898 6H164.102Z"/>
</mask>
<path d="M146.439 24.2828V30.2828H152.645L152.435 24.0797L146.439 24.2828ZM689.562 24.2828L683.565 24.0802L683.355 30.2828H689.562V24.2828ZM152.428 23.6734C152.428 17.2264 157.655 12 164.102 12V0C151.027 0 140.428 10.5989 140.428 23.6734H152.428ZM152.435 24.0797C152.431 23.9449 152.428 23.8094 152.428 23.6734H140.428C140.428 23.9453 140.433 24.2162 140.442 24.4859L152.435 24.0797ZM36 30.2828H146.439V18.2828H36V30.2828ZM12 54.2829C12 41.028 22.7452 30.2828 36 30.2828V18.2828C16.1177 18.2828 0 34.4006 0 54.2829H12ZM12 338V54.2829H0V338H12ZM36 362C22.7452 362 12 351.255 12 338H0C0 357.882 16.1178 374 36 374V362ZM800 362H36V374H800V362ZM824 338C824 351.255 813.255 362 800 362V374C819.882 374 836 357.882 836 338H824ZM824 54.2828V338H836V54.2828H824ZM800 30.2828C813.255 30.2828 824 41.028 824 54.2828H836C836 34.4006 819.882 18.2828 800 18.2828V30.2828ZM689.562 30.2828H800V18.2828H689.562V30.2828ZM683.572 23.6734C683.572 23.8091 683.57 23.9447 683.565 24.0802L695.558 24.4855C695.567 24.2163 695.572 23.9456 695.572 23.6734H683.572ZM671.898 12C678.345 12 683.572 17.2264 683.572 23.6734H695.572C695.572 10.5989 684.973 0 671.898 0V12ZM164.102 12H671.898V0H164.102V12Z" fill="#171717" mask="url(#path-1-outside-1)"/>
<rect x="146.428" y="6" width="543.144" height="35.3468" rx="17.6734" fill="white"/>
<rect x="10" y="28.2828" width="816" height="335.717" rx="26" fill="white" stroke="#448EA8" stroke-width="8"/>
</svg>
