<svg width="30" height="30" viewBox="0 0 30 30" fill="none" xmlns="http://www.w3.org/2000/svg">
<path d="M14.6521 20.3203C11.9374 20.3203 9.67304 18.3947 9.13549 15.8362H0.104736C0.743071 23.276 6.97188 29.1134 14.558 29.1134C22.1441 29.1134 28.3796 23.276 29.0112 15.8362H20.1686C19.6311 18.4014 17.3667 20.3203 14.6521 20.3203Z" fill="#C4C4C4"/>
<path d="M17.9781 14.6714C17.9713 14.6714 17.9713 14.6714 17.9781 14.6714C17.9713 14.2607 17.8974 13.8702 17.763 13.5067C17.2927 12.2409 16.0765 11.3454 14.652 11.3454C13.2275 11.3454 12.0113 12.2476 11.541 13.5067C11.4066 13.8702 11.3327 14.2607 11.3327 14.6714H11.3394C11.3394 15.0821 11.4133 15.4726 11.5477 15.8362C12.0181 17.102 13.2343 17.9975 14.6587 17.9975C16.0832 17.9975 17.2994 17.0953 17.7698 15.8362C17.9042 15.4794 17.9781 15.0821 17.9781 14.6714Z" fill="white"/>
<path d="M14.6588 9.0293C17.3734 9.0293 19.6378 10.9549 20.1753 13.5134H29.2061C28.5678 6.06683 22.339 0.229431 14.7461 0.229431C7.15332 0.229431 0.931242 6.06683 0.292908 13.5067H9.14224C9.67978 10.9482 11.9442 9.0293 14.6588 9.0293Z" fill="#C4C4C4"/>
</svg>
